<?xml version="1.0" encoding="UTF-8"?>
<!DOCTYPE svg PUBLIC "-//W3C//DTD SVG 1.1//EN" "http://www.w3.org/Graphics/SVG/1.1/DTD/svg11.dtd">
<svg xmlns="http://www.w3.org/2000/svg" version="1.1" width="16px" height="16px" style="shape-rendering:geometricPrecision; text-rendering:geometricPrecision; image-rendering:optimizeQuality; fill-rule:evenodd; clip-rule:evenodd" xmlns:xlink="http://www.w3.org/1999/xlink">
<g><path style="opacity:1" fill="#ae6caf" d="M 11.5,9.5 C 9.62143,9.60682 9.2881,9.10682 10.5,8C 9.20677,7.50999 7.87344,7.34332 6.5,7.5C 6.73731,8.79105 6.40397,9.79105 5.5,10.5C 4.07546,12.0311 3.40879,11.6977 3.5,9.5C 2.7101,8.20577 1.7101,7.0391 0.5,6C 1.88041,4.07479 3.38041,2.24146 5,0.5C 6.66667,3.16667 8.33333,3.16667 10,0.5C 11.6196,2.24146 13.1196,4.07479 14.5,6C 13.2899,7.0391 12.2899,8.20577 11.5,9.5 Z"/></g>
<g><path style="opacity:1" fill="#d07dcc" d="M 11.5,9.5 C 11.6068,11.3786 11.1068,11.7119 10,10.5C 9.50999,11.7932 9.34332,13.1266 9.5,14.5C 9.5,14.8333 9.5,15.1667 9.5,15.5C 9.16667,15.5 8.83333,15.5 8.5,15.5C 7.83333,14.1667 7.16667,14.1667 6.5,15.5C 6.16667,15.5 5.83333,15.5 5.5,15.5C 5.5,15.1667 5.5,14.8333 5.5,14.5C 5.5,13.1667 5.5,11.8333 5.5,10.5C 6.40397,9.79105 6.73731,8.79105 6.5,7.5C 7.87344,7.34332 9.20677,7.50999 10.5,8C 9.2881,9.10682 9.62143,9.60682 11.5,9.5 Z"/></g>
<g><path style="opacity:1" fill="#4a2c4e" d="M 3.5,9.5 C 3.40879,11.6977 4.07546,12.0311 5.5,10.5C 5.5,11.8333 5.5,13.1667 5.5,14.5C 4.37067,13.5305 3.37067,12.3638 2.5,11C 2.56993,10.2352 2.90326,9.7352 3.5,9.5 Z"/></g>
<g><path style="opacity:1" fill="#693d6a" d="M 11.5,9.5 C 12.2828,11.328 13.6161,12.6613 15.5,13.5C 15.5,13.8333 15.5,14.1667 15.5,14.5C 14.8333,14.5 14.5,14.8333 14.5,15.5C 13.8333,15.5 13.1667,15.5 12.5,15.5C 11.791,14.596 10.791,14.2627 9.5,14.5C 9.34332,13.1266 9.50999,11.7932 10,10.5C 11.1068,11.7119 11.6068,11.3786 11.5,9.5 Z"/></g>
</svg>
